<?xml version="1.0" encoding="UTF-8"?><svg xmlns="http://www.w3.org/2000/svg" xmlns:xlink="http://www.w3.org/1999/xlink" viewBox="0 0 573 572"><defs><clipPath id="uuid-ded90905-b30f-4c50-b148-47a5d5c28f49"><path d="M386.8,150.57c2.32,2.73,4.52,5.56,6.58,8.5,5.22,3.38,9.66,6.96,12.91,10.61-.5,2.45-1.37,4.96-2.53,7.5,1.83,3.98,3.43,8.09,4.8,12.31,8.54,26.29,7.07,45.9-3.2,70.81-8.4,8.38-17.92,24.09-28.67,29.81-8.06,4.3-16.75,7.76-25.94,10.22l-218.84,58.64v-78.07l199.33-53.41c2.76-.74,5.41-1.72,7.91-2.89,2.18-1.03,4.26-2.21,6.22-3.54l.96-.61c15.2-11.27,22.9-31.25,17.74-50.53-5.35-19.94-22.89-33.53-42.46-34.91,25.33-20.86,64.41,31.63,65.18,15.55" style="clip-rule:evenodd; fill:#fff;"/></clipPath><clipPath id="uuid-37305fa6-633c-4cd8-9448-127868d277b6"><polygon points="169.96 512.52 169.96 376.5 245.38 356.29 245.38 512.52 169.96 512.52" style="clip-rule:evenodd; fill:#fff;"/></clipPath><clipPath id="uuid-0dfaa49c-330f-422c-98b3-70cdb34e0f9a"><path d="M384.58,164.61c32.75,36.85,29.08,93.9-9,126.1,49.54-26.11,76.4-83.99,61.32-140.3-15.04-56.11-66.94-92.76-122.68-90.86-9.14.31-18.37,1.65-27.57,4.12l-116.21,31.14-.48,78.19,136.2-36.49c2.77-.74,5.54-1.22,8.3-1.45,2.4-.2,4.79-.21,7.15-.04,24.47.84,47.14,11.79,62.97,29.6" style="clip-rule:evenodd; fill:#fff;"/></clipPath><clipPath id="uuid-641972b6-5ece-455f-8fce-9e5b09b77b4a"><polygon points="286.5 464.87 164.54 464.87 146.42 439.65 286.5 439.65 286.5 464.87" style="clip-rule:evenodd; fill:#fff;"/></clipPath><clipPath id="uuid-59fc32d6-8386-4305-a13c-bbe01bac6b93"><polygon points="131.92 439.65 253.87 439.65 271.99 464.87 131.92 464.87 131.92 439.65" style="clip-rule:evenodd; fill:#fff;"/></clipPath></defs><g id="uuid-f1592b53-ffac-4def-b9e0-c345c321d3b3"><path d="M532.86,572H40.14c-22.14,0-40.14-17.99-40.14-39.67V39.67C0,17.76,17.76,0,39.67,0h493.19c22.14,0,40.14,17.99,40.14,39.67v492.66c-.46,21.68-18.45,39.67-40.14,39.67Z" style="fill:#221f20;"/></g><g id="uuid-8d3fece9-2ac4-4602-9ce1-daa8f177c6c9"><path d="M386.8,150.57c2.32,2.73,4.52,5.56,6.58,8.5,5.22,3.38,9.66,6.96,12.91,10.61-.5,2.45-1.37,4.96-2.53,7.5,1.83,3.98,3.43,8.09,4.8,12.31,8.54,26.29,7.07,45.9-3.2,70.81-8.4,8.38-17.92,24.09-28.67,29.81-8.06,4.3-16.75,7.76-25.94,10.22l-218.84,58.64v-78.07l199.33-53.41c2.76-.74,5.41-1.72,7.91-2.89,2.18-1.03,4.26-2.21,6.22-3.54l.96-.61c15.2-11.27,22.9-31.25,17.74-50.53-5.35-19.94-22.89-33.53-42.46-34.91,25.33-20.86,64.41,31.63,65.18,15.55" style="fill:#fff; fill-rule:evenodd;"/><g style="clip-path:url(#uuid-ded90905-b30f-4c50-b148-47a5d5c28f49);"><rect x="131.92" y="114.16" width="285.19" height="244.82" style="fill:#fff;"/></g><polygon points="169.96 512.52 169.96 376.5 245.38 356.29 245.38 512.52 169.96 512.52" style="fill:#fff; fill-rule:evenodd;"/><g style="clip-path:url(#uuid-37305fa6-633c-4cd8-9448-127868d277b6);"><rect x="169.96" y="356.29" width="75.42" height="156.23" style="fill:#fff;"/></g><path d="M384.58,164.61c32.75,36.85,29.08,93.9-9,126.1,49.54-26.11,76.4-83.99,61.32-140.3-15.04-56.11-66.94-92.76-122.68-90.86-9.14.31-18.37,1.65-27.57,4.12l-116.21,31.14-.48,78.19,136.2-36.49c2.77-.74,5.54-1.22,8.3-1.45,2.4-.2,4.79-.21,7.15-.04,24.47.84,47.14,11.79,62.97,29.6" style="fill:#fff; fill-rule:evenodd;"/><g style="clip-path:url(#uuid-0dfaa49c-330f-422c-98b3-70cdb34e0f9a);"><rect x="169.97" y="57.66" width="282.02" height="233.05" style="fill:#fff;"/></g><polygon points="286.5 464.87 164.54 464.87 146.42 439.65 286.5 439.65 286.5 464.87" style="fill:#fff; fill-rule:evenodd;"/><g style="clip-path:url(#uuid-641972b6-5ece-455f-8fce-9e5b09b77b4a);"><rect x="146.42" y="439.65" width="140.08" height="25.22" style="fill:#fff;"/></g><polygon points="131.92 439.65 253.87 439.65 271.99 464.87 131.92 464.87 131.92 439.65" style="fill:#fff; fill-rule:evenodd;"/><g style="clip-path:url(#uuid-59fc32d6-8386-4305-a13c-bbe01bac6b93);"><rect x="131.92" y="439.65" width="140.08" height="25.22" style="fill:#fff;"/></g></g></svg>
