<svg xmlns="http://www.w3.org/2000/svg" fill="none" viewBox="0 0 64 64" id="exodus"><g clip-path="url(#adwa)"><path fill="url(#adwb)" d="M32 64c17.673 0 32-14.327 32-32C64 14.327 49.673 0 32 0 14.327 0 0 14.327 0 32c0 17.673 14.327 32 32 32Z"/><path fill="#fff" d="M53.21 22.285 34.471 10v6.869l12.02 7.81-1.414 4.475H34.472v5.692h10.606l1.414 4.474-12.02 7.811V54l18.737-12.246-3.064-9.734 3.064-9.735ZM18.17 34.846h10.567v-5.692H18.131l-1.375-4.474 11.981-7.811V10L10 22.285l3.064 9.735L10 41.754 28.776 54v-6.869l-12.02-7.81 1.415-4.475Z"/><mask id="adwc" width="44" height="44" x="10" y="10" maskUnits="userSpaceOnUse" style="mask-type:alpha"><path fill="#fff" d="M53.21 22.285 34.472 10v6.869l12.02 7.81-1.414 4.475H34.472v5.692h10.606l1.414 4.474-12.02 7.811V54L53.21 41.754l-3.064-9.734 3.064-9.735ZM18.17 34.846h10.567v-5.692H18.131l-1.375-4.474 11.981-7.811V10L10 22.285l3.064 9.735L10 41.754 28.777 54v-6.869l-12.02-7.81 1.413-4.475Z"/></mask><g mask="url(#adwc)"><path fill="#fff" d="M52.923 10h-42.9v44h42.9V10Z"/></g></g><defs><linearGradient id="adwb" x1="4.103" x2="49.5" y1="14.4" y2="45" gradientUnits="userSpaceOnUse"><stop stop-color="#8952FF"/><stop offset=".448" stop-color="#928FFF"/><stop offset="1" stop-color="#306CF4"/></linearGradient><clipPath id="adwa"><path fill="#fff" d="M0 0h64v64H0z"/></clipPath></defs></svg>
