<svg xmlns="http://www.w3.org/2000/svg" fill="none" viewBox="0 0 64 64" id="rainbow"><g clip-path="url(#afha)"><path fill="url(#afhb)" d="M0 32c0 17.673 14.327 32 32 32 17.673 0 32-14.327 32-32C64 14.327 49.673 0 32 0 14.327 0 0 14.327 0 32Z"/><path fill="url(#afhc)" d="M12 21h3c15.464 0 28 12.536 28 28v3h6a3 3 0 0 0 3-3c0-20.434-16.565-37-37-37a3 3 0 0 0-3 3v6Z"/><path fill="url(#afhd)" d="M44 49h8a3 3 0 0 1-3 3h-5v-3Z"/><path fill="url(#afhe)" d="M15 12v8h-3v-5a3 3 0 0 1 3-3Z"/><path fill="url(#afhf)" d="M12 20h3c16.016 0 29 12.984 29 29v3h-9v-3c0-11.046-8.954-20-20-20h-3v-9Z"/><path fill="url(#afhg)" d="M36 49h8v3h-8v-3Z"/><path fill="url(#afhh)" d="M12 28v-8h3v8h-3Z"/><path fill="url(#afhi)" d="M12 33a3 3 0 0 0 3 3c7.18 0 13 5.82 13 13a3 3 0 0 0 3 3h5v-3c0-11.598-9.402-21-21-21h-3v5Z"/><path fill="url(#afhj)" d="M28 49h8v3h-5a3 3 0 0 1-3-3Z"/><path fill="url(#afhk)" d="M15 36a3 3 0 0 1-3-3v-5h3v8Z"/></g><defs><radialGradient id="afhc" cx="0" cy="0" r="1" gradientTransform="matrix(0 -37 37 0 15 49)" gradientUnits="userSpaceOnUse"><stop offset=".77" stop-color="#FF4000"/><stop offset="1" stop-color="#8754C9"/></radialGradient><radialGradient id="afhf" cx="0" cy="0" r="1" gradientTransform="matrix(0 -29 29 0 15 49)" gradientUnits="userSpaceOnUse"><stop offset=".724" stop-color="#FFF700"/><stop offset="1" stop-color="#FF9901"/></radialGradient><radialGradient id="afhi" cx="0" cy="0" r="1" gradientTransform="matrix(0 -21 21 0 15 49)" gradientUnits="userSpaceOnUse"><stop offset=".595" stop-color="#0AF"/><stop offset="1" stop-color="#01DA40"/></radialGradient><radialGradient id="afhj" cx="0" cy="0" r="1" gradientTransform="matrix(8.5 0 0 22.6666 27.5 50.5)" gradientUnits="userSpaceOnUse"><stop stop-color="#0AF"/><stop offset="1" stop-color="#01DA40"/></radialGradient><radialGradient id="afhk" cx="0" cy="0" r="1" gradientTransform="matrix(0 -8.5 161.185 0 13.5 36.5)" gradientUnits="userSpaceOnUse"><stop stop-color="#0AF"/><stop offset="1" stop-color="#01DA40"/></radialGradient><linearGradient id="afhb" x1="32" x2="32" y1="0" y2="64" gradientUnits="userSpaceOnUse"><stop stop-color="#174299"/><stop offset="1" stop-color="#001E59"/></linearGradient><linearGradient id="afhd" x1="43.5" x2="52" y1="50.5" y2="50.5" gradientUnits="userSpaceOnUse"><stop stop-color="#FF4000"/><stop offset="1" stop-color="#8754C9"/></linearGradient><linearGradient id="afhe" x1="13.5" x2="13.5" y1="12" y2="20.5" gradientUnits="userSpaceOnUse"><stop stop-color="#8754C9"/><stop offset="1" stop-color="#FF4000"/></linearGradient><linearGradient id="afhg" x1="36" x2="44" y1="50.5" y2="50.5" gradientUnits="userSpaceOnUse"><stop stop-color="#FFF700"/><stop offset="1" stop-color="#FF9901"/></linearGradient><linearGradient id="afhh" x1="13.5" x2="13.5" y1="28" y2="20" gradientUnits="userSpaceOnUse"><stop stop-color="#FFF700"/><stop offset="1" stop-color="#FF9901"/></linearGradient><clipPath id="afha"><path fill="#fff" d="M0 0h64v64H0z"/></clipPath></defs></svg>
