<svg width="60" height="60" viewBox="0 0 60 60" fill="none" xmlns="http://www.w3.org/2000/svg">
<path d="M19.3848 46.0387C19.8629 45.819 20.3411 45.6392 20.8391 45.4395C21.397 45.2397 21.9548 45.04 22.5127 44.8602C23.2099 44.6405 23.9272 44.4608 24.6444 44.301C25.6206 44.1013 26.5968 43.9415 27.573 43.8416C27.0152 45.5793 26.4175 47.317 25.7401 49.0347C25.7601 49.3742 25.78 49.6938 25.7999 50.0334C27.1347 49.7737 28.5094 49.6339 29.9239 49.6339C31.3384 49.6339 32.7131 49.7737 34.0479 50.0334C34.0479 49.6938 34.0678 49.3543 34.1077 49.0347C33.4502 47.317 32.8326 45.5793 32.2748 43.8416C33.251 43.9415 34.2471 44.0813 35.2034 44.301C35.9206 44.4608 36.6179 44.6405 37.3351 44.8602C37.893 45.04 38.4508 45.2198 39.0086 45.4395C39.5067 45.6192 39.9849 45.819 40.463 46.0387C43.8499 47.5567 46.9379 49.7937 49.4681 52.7098C55.8234 47.2171 59.8478 39.0879 59.8478 30C59.8478 13.4421 46.4597 0 29.9239 0C13.408 0 0 13.4221 0 30C0 39.068 4.02438 47.1971 10.3797 52.7098C12.9099 49.7937 15.9979 47.5567 19.3848 46.0387Z" fill="#A0DBE8"/>
<path d="M21.3555 51.4698C22.7501 50.8506 24.2443 50.3712 25.7784 50.0716C25.7784 49.7321 25.7585 49.3925 25.7186 49.073C26.3761 47.3553 26.9937 45.6176 27.5515 43.8799C26.5753 43.9797 25.5792 44.1196 24.6229 44.3393C23.9056 44.4991 23.2083 44.6788 22.4911 44.8985C21.9333 45.0783 21.3755 45.258 20.8176 45.4778L22.9892 46.017L21.3555 51.4698Z" fill="#525353"/>
<path d="M16.2155 54.687C16.2753 54.1278 16.2952 53.5685 16.2952 52.9893C16.2952 52.6497 16.5742 52.3701 16.9128 52.3701H17.4508L19.3633 46.0186C15.9765 47.5365 12.8885 49.7736 10.3583 52.6897C11.7529 53.908 13.267 54.9866 14.8608 55.9254C15.319 55.5059 15.7573 55.0865 16.2155 54.687Z" fill="#525353"/>
<path d="M40.444 46.0371L42.3565 52.3886H42.8945C43.2332 52.3886 43.5121 52.6683 43.5121 53.0078C43.5121 53.5871 43.5519 54.1463 43.5918 54.7056C44.05 55.105 44.5082 55.5045 44.9266 55.9439C46.5403 55.0052 48.0345 53.9266 49.4291 52.7082C46.9188 49.7921 43.8308 47.5551 40.444 46.0371Z" fill="#525353"/>
<path d="M36.797 45.977L38.9686 45.4377C38.4108 45.238 37.8529 45.0382 37.2951 44.8585C36.5978 44.6388 35.8806 44.459 35.1634 44.2992C34.1872 44.0995 33.211 43.9397 32.2347 43.8398C32.7926 45.5775 33.3903 47.3152 34.0676 49.0329C34.0477 49.3725 34.0278 49.6921 34.0079 50.0316C35.5618 50.3312 37.0361 50.8106 38.4307 51.4297L36.797 45.977Z" fill="#525353"/>
<path d="M29.9034 52.3902H34.127C34.0473 51.6112 34.0075 50.8323 34.0274 50.0733C32.6926 49.8136 31.3179 49.6738 29.9034 49.6738C28.4889 49.6738 27.1142 49.8136 25.7794 50.0733C25.7993 50.8523 25.7595 51.6112 25.6798 52.3902H29.9034Z" fill="black"/>
<path d="M14.8832 55.9268C15.2219 56.1266 15.5805 56.3263 15.9391 56.526C16.0586 55.9268 16.1582 55.3077 16.218 54.6885C15.7598 55.0879 15.3215 55.5074 14.8832 55.9268Z" fill="black"/>
<path d="M21.0784 52.3921H25.7004C25.7801 51.6131 25.82 50.8342 25.8 50.0752C24.2461 50.3748 22.7718 50.8542 21.3772 51.4733L21.0784 52.3921Z" fill="black"/>
<path d="M43.6112 54.6885C43.671 55.3077 43.7706 55.9268 43.8901 56.526C44.2487 56.3463 44.5874 56.1465 44.946 55.9268C44.5077 55.5074 44.0694 55.0879 43.6112 54.6885Z" fill="black"/>
<path d="M38.7488 52.3921L38.4699 51.4733C37.0753 50.8542 35.5811 50.3748 34.0471 50.0752C34.0271 50.8542 34.067 51.6131 34.1467 52.3921H38.7488Z" fill="black"/>
<path d="M21.0788 52.3902L21.3577 51.4714L23.0113 45.9787L20.8397 45.4395C20.3416 45.6192 19.8635 45.8189 19.3854 46.0387L17.4728 52.3902H19.5248H21.0788Z" fill="#AA9678"/>
<path d="M38.4717 51.4714L38.7506 52.3902H40.3046H42.3566L40.444 46.0387C39.9659 45.8189 39.4878 45.6392 38.9897 45.4395L36.8181 45.9787L38.4717 51.4714Z" fill="#AA9678"/>
<path d="M17.5312 53.6669C17.5512 53.6469 17.5712 53.6469 17.5912 53.627H17.5312C17.5312 53.627 17.5312 53.6469 17.5312 53.6669Z" fill="#C0B098"/>
<path d="M29.9052 53.627H25.5023H20.7009H17.5929C17.573 53.6469 17.5531 53.6469 17.5332 53.6669C17.4933 54.8453 17.3339 55.9838 17.075 57.1023C20.9599 58.9598 25.303 59.9985 29.9052 59.9985V53.627Z" fill="#C0B098"/>
<path d="M42.2955 53.627H42.2356C42.2556 53.6469 42.2755 53.6469 42.2955 53.6669C42.2955 53.6469 42.2955 53.627 42.2955 53.627Z" fill="#AA9678"/>
<path d="M42.2358 53.627H39.1279H34.3066H29.9037V59.9985C34.4859 59.9985 38.849 58.9598 42.7339 57.1023C42.4749 55.9838 42.3155 54.8254 42.2757 53.6669C42.2757 53.6469 42.2558 53.627 42.2358 53.627Z" fill="#AA9678"/>
<path d="M43.6098 54.689C43.55 54.1297 43.5301 53.5705 43.5301 52.9912C43.5301 52.6517 43.2512 52.3721 42.9125 52.3721H42.3746H40.2827H38.7287H34.1067H29.883H25.6594H21.0374H19.4834H17.4314H16.8935C16.5548 52.3721 16.2758 52.6517 16.2758 52.9912C16.2758 53.5705 16.236 54.1297 16.1962 54.689C16.1364 55.3082 16.0368 55.9273 15.9172 56.5265C16.2958 56.7263 16.6743 56.926 17.0528 57.1058C17.3118 55.9873 17.4712 54.8288 17.5111 53.6703C17.5111 53.6504 17.5111 53.6504 17.5111 53.6304H17.5708H20.6788H25.4801H29.883H34.3059H39.1073H42.2152H42.275C42.275 53.6504 42.275 53.6504 42.275 53.6703C42.3148 54.8488 42.4742 55.9873 42.7332 57.1058C43.1117 56.926 43.4903 56.7263 43.8688 56.5265C43.7492 55.9273 43.6696 55.3082 43.6098 54.689Z" fill="#8B7460"/>
<path d="M38.4713 48.0954C38.3714 47.9955 38.2915 47.8757 38.1917 47.7559C38.2915 47.8957 38.3914 47.9955 38.4713 48.0954Z" fill="#525353"/>
<path d="M39.1676 48.7934C39.1676 48.7934 38.8688 48.5537 38.4703 48.1143C38.8688 48.5537 39.1676 48.7934 39.1676 48.7934Z" fill="#AA9678"/>
<path d="M49.828 23.3287C49.828 23.3287 49.828 23.3087 49.828 23.3287C49.569 22.9692 49.31 22.6496 49.051 22.37C48.9314 22.2302 48.8119 22.1103 48.6924 21.9905C48.6525 21.9505 48.5928 21.9106 48.5529 21.8706C48.4732 21.7907 48.3935 21.7308 48.3138 21.6709V24.4672L49.3697 29.3607C49.3897 29.4006 49.3897 29.4405 49.4096 29.4805L50.1467 30.3194H50.9237C50.9237 30.2395 50.9237 30.1796 50.9237 30.0997C50.9237 27.7828 50.5452 25.5657 49.8678 23.4885C49.8479 23.4086 49.8479 23.3686 49.828 23.3287Z" fill="#BBBCBD"/>
<path d="M49.4863 29.8204V29.8403C49.4863 29.8403 49.4863 29.8403 49.4863 29.8603C49.5062 29.9802 49.5062 30.1 49.5062 30.2198C49.5062 30.2398 49.5062 30.2598 49.5062 30.2798C49.5062 30.2997 49.5062 30.3197 49.5062 30.3397C49.5062 30.4595 49.5062 30.5794 49.4863 30.6792V30.6992V30.7192C49.4664 30.839 49.4464 30.9589 49.4265 31.0787L50.1637 30.2598L49.4265 29.4209C49.4464 29.5607 49.4664 29.6806 49.4863 29.8204Z" fill="#676A6A"/>
<path d="M49.4688 30.7583C49.4688 30.7383 49.4688 30.7383 49.4688 30.7184C49.4887 30.5985 49.4887 30.4787 49.4887 30.3788C49.4887 30.3588 49.4887 30.3189 49.4887 30.2989C49.4887 30.2789 49.4887 30.259 49.4887 30.219C49.4887 30.0992 49.4887 29.9793 49.4688 29.8595C49.4688 29.8395 49.4688 29.8395 49.4688 29.8196C49.4489 29.6997 49.429 29.5799 49.409 29.46C49.3891 29.4201 49.3891 29.3801 49.3692 29.3402C49.2895 29.1005 49.2098 28.9008 49.0903 28.721C49.0703 28.701 49.0504 28.6811 49.0504 28.6611C49.0106 28.6211 48.9907 28.5812 48.9508 28.5413C48.911 28.4813 48.8512 28.4414 48.7914 28.4014C48.7715 28.3815 48.7516 28.3815 48.7317 28.3615C48.6918 28.3215 48.6321 28.3016 48.5922 28.2816C48.5723 28.2816 48.5524 28.2616 48.5324 28.2616C48.4727 28.2417 48.393 28.2217 48.3133 28.2217C48.2336 28.2217 48.1738 28.2417 48.0941 28.2616C48.0742 28.2616 48.0543 28.2816 48.0344 28.2816C47.9945 28.3016 47.9348 28.3215 47.8949 28.3615C47.875 28.3815 47.8551 28.3815 47.8351 28.4014C47.7754 28.4414 47.7355 28.5013 47.6758 28.5413C47.6359 28.5812 47.616 28.6211 47.5761 28.6611C47.5562 28.6811 47.5363 28.701 47.5363 28.721C47.4168 28.9008 47.3171 29.1005 47.2574 29.3402V29.3602C47.2175 29.46 47.1976 29.5799 47.1777 29.6997C47.1777 29.7397 47.1578 29.7596 47.1578 29.7996C47.1378 29.9394 47.1378 30.0592 47.1179 30.199C47.1179 30.219 47.1179 30.239 47.1179 30.259C47.1179 31.3974 47.6558 32.3362 48.3133 32.3362C48.4328 32.3362 48.5324 32.2963 48.652 32.2563C48.6719 32.2563 48.6918 32.2363 48.7117 32.2363C48.7516 32.2164 48.7914 32.1764 48.8313 32.1564C48.8512 32.1365 48.8711 32.1165 48.891 32.0965C48.9508 32.0566 48.9907 31.9967 49.0504 31.9367C49.0903 31.8968 49.1102 31.8568 49.15 31.7969C49.17 31.757 49.1899 31.737 49.2098 31.697C49.2496 31.6371 49.2696 31.5772 49.3094 31.4973C49.3293 31.4773 49.3293 31.4574 49.3493 31.4174C49.3891 31.3176 49.409 31.2177 49.4489 31.1178C49.4489 30.998 49.4688 30.8781 49.4688 30.7583ZM48.3531 29.9993C48.0941 29.9993 47.8949 29.6598 47.8949 29.2203C47.8949 28.8009 48.0941 28.4414 48.3531 28.4414C48.6121 28.4414 48.8113 28.7809 48.8113 29.2203C48.8113 29.6598 48.5922 29.9993 48.3531 29.9993Z" fill="black"/>
<path d="M48.354 29.9984C48.607 29.9984 48.8122 29.6496 48.8122 29.2194C48.8122 28.7892 48.607 28.4404 48.354 28.4404C48.1009 28.4404 47.8958 28.7892 47.8958 29.2194C47.8958 29.6496 48.1009 29.9984 48.354 29.9984Z" fill="white"/>
<path d="M47.2371 29.3388C47.3168 29.0991 47.3964 28.8994 47.516 28.7196C47.5359 28.6996 47.5558 28.6797 47.5558 28.6597C47.5957 28.6198 47.6156 28.5798 47.6554 28.5399C47.6953 28.4799 47.755 28.44 47.8148 28.4C47.8347 28.3801 47.8547 28.3801 47.8746 28.3601C47.9144 28.3201 47.9742 28.3002 48.014 28.2802C48.034 28.2802 48.0539 28.2602 48.0738 28.2602C48.1336 28.2403 48.2133 28.2203 48.293 28.2203C48.3727 28.2203 48.4324 28.2403 48.5121 28.2602C48.532 28.2602 48.552 28.2802 48.5719 28.2802C48.6117 28.3002 48.6715 28.3201 48.7113 28.3601C48.7313 28.3801 48.7512 28.3801 48.7711 28.4C48.8309 28.44 48.8707 28.4999 48.9305 28.5399C48.9703 28.5798 48.9903 28.6198 49.0301 28.6597C49.05 28.6797 49.07 28.6996 49.07 28.7196C49.1895 28.8994 49.2891 29.0991 49.3489 29.3388L48.293 24.4453L47.2371 29.3388Z" fill="#909393"/>
<path d="M34.1882 30.2392C34.1882 30.1393 34.1882 30.0395 34.1683 29.9396C34.1484 29.8397 34.1484 29.7598 34.1284 29.66C34.1085 29.5601 34.0886 29.4802 34.0487 29.4003C34.0288 29.3204 33.989 29.2206 33.9491 29.1407C33.9093 29.0608 33.8694 28.9809 33.8296 28.901C33.6901 28.6613 33.5308 28.4416 33.3315 28.2618C33.0725 28.0221 32.7737 27.8224 32.4549 27.6826C32.2955 27.6227 32.1162 27.5628 31.9569 27.5228C31.9569 27.5228 31.9569 27.5228 31.9369 27.5228C31.7576 27.4829 31.5783 27.4629 31.399 27.4629C31.2197 27.4629 31.0404 27.4829 30.8611 27.5228H30.8412C30.6619 27.5628 30.5025 27.6027 30.3431 27.6626C30.3431 27.6626 30.3431 27.6626 30.3232 27.6626C30.1638 27.7225 30.0044 27.8024 29.865 27.9023C29.7255 28.0022 29.5861 28.102 29.4665 28.2219H29.4466C29.2474 28.4216 29.0681 28.6413 28.9286 28.881C28.8888 28.9609 28.8489 29.0408 28.8091 29.1207C28.8091 29.1207 28.8091 29.1407 28.7891 29.1407C28.7493 29.2206 28.7294 29.2805 28.7095 29.3604C28.7095 29.3803 28.6895 29.3803 28.6895 29.4003C28.6696 29.4802 28.6497 29.5401 28.6298 29.62C28.6298 29.64 28.6098 29.66 28.6098 29.6799C28.5899 29.7598 28.5899 29.8198 28.57 29.8996C28.57 29.9196 28.57 29.9396 28.5501 29.9596C28.5501 30.0594 28.5302 30.1593 28.5302 30.2592C28.5302 30.4389 28.5501 30.6187 28.5899 30.7984C28.5899 30.7984 28.5899 30.7984 28.5899 30.8184C28.6298 30.9982 28.6696 31.158 28.7493 31.3377C28.8888 31.6573 29.088 31.9569 29.3271 32.2166C29.5263 32.4163 29.7454 32.5961 29.9845 32.7359C30.0642 32.7758 30.1439 32.8158 30.2236 32.8557H30.2435C30.3232 32.8957 30.4029 32.9156 30.4627 32.9356C30.4826 32.9356 30.4826 32.9356 30.5025 32.9556C30.5822 32.9755 30.642 32.9955 30.7216 33.0155C30.7416 33.0155 30.7615 33.0355 30.7814 33.0355C30.8611 33.0554 30.9209 33.0554 31.0006 33.0754C31.0205 33.0754 31.0404 33.0754 31.0603 33.0954C31.16 33.0954 31.2596 33.1154 31.3592 33.1154C31.7576 33.1154 32.1162 33.0355 32.4549 32.8957C32.6143 32.8158 32.7737 32.7359 32.9331 32.636C33.2319 32.4363 33.4909 32.1766 33.6901 31.877C33.7897 31.7172 33.8694 31.5574 33.9491 31.3976C34.0886 31.0581 34.1683 30.6786 34.1683 30.2991V30.2791C34.1882 30.2392 34.1882 30.2392 34.1882 30.2392ZM31.3791 29.8996C30.8013 29.8996 30.3232 29.4203 30.3232 28.8411C30.3232 28.2618 30.8013 27.7825 31.3791 27.7825C31.9569 27.7825 32.435 28.2618 32.435 28.8411C32.435 29.4203 31.9569 29.8996 31.3791 29.8996Z" fill="black"/>
<path d="M31.3777 29.8994C31.9608 29.8994 32.4336 29.4255 32.4336 28.8408C32.4336 28.2562 31.9608 27.7822 31.3777 27.7822C30.7945 27.7822 30.3218 28.2562 30.3218 28.8408C30.3218 29.4255 30.7945 29.8994 31.3777 29.8994Z" fill="white"/>
<path d="M29.4248 28.2244L31.3773 22.2523C31.3773 22.2523 31.3773 21.8928 31.3773 21.5533C31.3773 21.4534 31.3773 21.3535 31.3773 21.2736C31.3773 21.2337 31.3773 21.2137 31.3773 21.1937C31.3773 21.1538 31.3773 21.1138 31.3773 21.0739C31.3773 21.0539 31.3773 21.014 31.3773 20.994C31.3773 20.974 31.3773 20.9341 31.3773 20.9141C31.3773 20.8941 31.3773 20.8742 31.3773 20.8742C31.3773 20.8542 31.3773 20.8542 31.3773 20.8542C30.3014 20.6345 29.1858 20.5146 28.0502 20.5146C27.6717 20.5146 27.2931 20.5346 26.9146 20.5546C26.8548 20.5546 26.815 20.5546 26.7552 20.5746C24.8028 20.7144 22.8902 21.2337 21.1171 22.0526C19.603 22.7517 18.1685 23.6704 16.9134 24.749C16.5747 25.0486 16.236 25.3482 15.9173 25.6678C15.8575 25.7277 15.7977 25.7876 15.738 25.8475C15.4391 26.1471 15.1403 26.4667 14.8614 26.7863C14.8016 26.8662 14.7418 26.9261 14.6821 27.006C14.4031 27.3455 14.1242 27.6851 13.8652 28.0246C13.8453 28.0446 13.8254 28.0846 13.8055 28.1045C13.5664 28.4441 13.3273 28.7836 13.0882 29.1432C13.0484 29.2031 12.9886 29.283 12.9488 29.3429C12.7695 29.6425 12.5902 29.9421 12.4308 30.2417H21.2565H21.2765L29.4248 28.2244Z" fill="#BBBCBD"/>
<path d="M36.8952 27.5631C36.9152 27.3234 36.9351 27.1037 36.9351 26.864C36.955 26.5444 36.955 26.2448 36.9749 25.9252C36.9749 25.6856 36.9749 25.4459 36.9749 25.1862C36.9749 25.1063 36.9749 25.0464 36.9749 24.9665C36.9749 24.3274 36.9351 23.7082 36.9152 23.0691C36.9152 23.0691 36.8952 23.0691 36.8952 23.0491C36.8952 23.0491 36.8753 23.0491 36.8753 23.0291C36.7558 22.9692 36.4769 22.8094 36.2179 22.6496H36.198C36.1382 22.6097 36.0784 22.5697 36.0186 22.5497C35.9788 22.5298 35.939 22.4898 35.8991 22.4698L35.8792 22.4499C35.8393 22.4299 35.7995 22.4099 35.7796 22.39C35.3811 22.1702 34.9627 21.9905 34.5444 21.8107C33.5482 21.3913 32.1935 21.0118 31.4165 20.832V21.3713V21.4912V21.5311C31.4165 21.8906 31.4165 22.2302 31.4165 22.2302L33.349 28.1822C33.5482 28.362 33.7275 28.5817 33.8471 28.8214C33.8869 28.9013 33.9268 28.9812 33.9666 29.0611C34.0065 29.141 34.0463 29.2209 34.0662 29.3207C34.0861 29.4006 34.126 29.5005 34.1459 29.5804C34.1658 29.6802 34.1858 29.7601 34.1858 29.86C34.2057 29.9599 34.2057 30.0597 34.2057 30.1596V30.1796H36.5566C36.7159 29.3207 36.8355 28.4419 36.8952 27.5631C36.8952 27.583 36.8952 27.603 36.8952 27.5631Z" fill="#E2DDDB"/>
<path d="M34.2061 38.747C34.744 38.2077 35.242 37.7084 35.7202 37.2091C35.9991 36.9095 36.278 36.6099 36.5569 36.3303C38.5293 34.1931 39.9637 32.1758 40.8403 29.5992C40.8602 29.5393 40.8802 29.4594 40.9001 29.3595C40.9001 29.3396 40.9001 29.3396 40.9001 29.3196C40.92 29.2197 40.9399 29.1199 40.9599 29C40.9599 28.9201 40.9798 28.8402 40.9798 28.7603C40.7606 27.6418 40.3423 26.5433 39.9637 25.4647C39.9637 25.4647 39.9637 25.4647 39.9637 25.4847C39.9637 25.4847 39.9637 25.4847 39.9438 25.4647C39.8641 25.4048 39.8043 25.3249 39.7247 25.265C39.5055 25.0653 39.2863 24.8655 39.0473 24.6658C38.35 24.0866 37.6328 23.5473 36.8757 23.0879C36.9155 23.727 36.9355 24.3462 36.9355 24.9854C36.9355 25.0653 36.9355 25.1252 36.9355 25.2051C36.9355 25.4447 36.9355 25.6844 36.9355 25.9441C36.9355 26.2637 36.9156 26.5832 36.8956 26.8828C36.8757 27.1225 36.8757 27.3422 36.8558 27.5819C36.8558 27.6019 36.8558 27.6219 36.8558 27.6618C36.7761 28.5406 36.6765 29.4195 36.5171 30.2783L36.2382 31.5966C35.6604 33.9534 34.485 36.0706 33.5287 38.2677C33.2697 38.8469 33.0306 39.4461 32.8115 40.0453C32.7916 40.1052 32.7716 40.1651 32.7517 40.2251C33.0505 39.9055 33.3295 39.6259 33.5287 39.4261C33.7877 39.1665 33.9869 38.9468 34.2061 38.747Z" fill="#FBB040"/>
<path d="M29.4473 28.2227C29.5668 28.1028 29.7063 28.003 29.8457 27.9031C29.9852 27.8032 30.1446 27.7233 30.3039 27.6634C30.3039 27.6634 30.3039 27.6634 30.3239 27.6634C30.4832 27.6035 30.6426 27.5436 30.8219 27.5236H30.8419C31.0212 27.4837 31.2005 27.4637 31.3798 27.4637C31.5591 27.4637 31.7384 27.4837 31.9177 27.5236C31.9177 27.5236 31.9177 27.5236 31.9376 27.5236C32.1169 27.5635 32.2763 27.6035 32.4357 27.6834C32.7544 27.8232 33.0533 28.003 33.3123 28.2626L31.3798 22.3105L29.4473 28.2227Z" fill="#909393"/>
<path d="M28.7672 31.3375C28.7074 31.1777 28.6476 30.998 28.6078 30.8182C28.6078 30.8182 28.6078 30.8182 28.6078 30.7982C28.568 30.6185 28.548 30.4387 28.548 30.259C28.548 30.1591 28.548 30.0592 28.568 29.9594C28.568 29.9394 28.568 29.9194 28.5879 29.8994C28.5879 29.8196 28.6078 29.7596 28.6277 29.6797C28.6277 29.6598 28.6476 29.6398 28.6476 29.6198C28.6676 29.5399 28.6875 29.48 28.7074 29.4001C28.7074 29.3801 28.7273 29.3801 28.7273 29.3602C28.7473 29.2803 28.7871 29.2004 28.807 29.1405C28.807 29.1405 28.807 29.1205 28.8269 29.1205C28.8668 29.0406 28.9066 28.9607 28.9465 28.8808C29.0859 28.6411 29.2652 28.4214 29.4645 28.2217L21.2962 30.239H21.2762L29.3649 32.2164C29.1059 31.9767 28.9066 31.6771 28.7672 31.3375Z" fill="#676A6A"/>
<path d="M47.1374 29.8023C47.1374 29.7623 47.1573 29.7224 47.1573 29.7024C47.1772 29.5826 47.1972 29.4627 47.237 29.3629C47.237 29.3429 47.237 29.3429 47.237 29.3229L48.2929 24.4294V21.6332C47.4163 20.9141 46.4999 20.5146 45.5236 20.5146C44.2884 20.5146 43.1528 21.1937 42.2962 22.0326C41.3598 22.9514 40.6426 24.1099 40.0449 25.2683C40.025 25.3282 39.9851 25.3682 39.9652 25.4281C40.1445 25.5879 40.3238 25.7477 40.5031 25.9075C40.9016 26.267 41.3 26.6465 41.6786 27.026C41.8579 27.2057 42.0372 27.3855 42.2165 27.5653C42.3958 27.765 42.595 27.9448 42.7743 28.1445C43.0134 28.4041 43.2525 28.6438 43.4716 28.9035C43.5712 29.0033 43.6708 29.1232 43.7704 29.223C44.0494 29.5426 44.3283 29.8422 44.6072 30.1618C44.647 30.2017 44.6869 30.2417 44.7068 30.2617H47.1175C47.1175 30.2417 47.1175 30.2217 47.1175 30.2017C47.1175 30.0819 47.1175 29.9421 47.1374 29.8023Z" fill="#E2DDDB"/>
<path d="M10.9768 33.3374C10.9768 33.3174 10.9967 33.2974 10.9967 33.2774C11.1561 32.878 11.3155 32.4785 11.4948 32.079C11.5346 31.9592 11.5944 31.8593 11.6542 31.7595C11.7936 31.4399 11.953 31.1403 12.1124 30.8407C12.1722 30.7208 12.2319 30.601 12.3116 30.4612C12.3515 30.4013 12.3913 30.3214 12.4311 30.2615C12.6105 29.9619 12.7698 29.6623 12.9491 29.3627C12.989 29.3027 13.0488 29.2228 13.0886 29.1629C13.3077 28.8034 13.5468 28.4639 13.8058 28.1243C13.8257 28.1043 13.8457 28.0644 13.8656 28.0444C14.1246 27.6849 14.4035 27.3453 14.6824 27.0258C14.7422 26.9459 14.8019 26.886 14.8617 26.8061C15.1406 26.4865 15.4395 26.1669 15.7383 25.8673C15.7981 25.8074 15.8579 25.7475 15.9176 25.6875C16.2364 25.368 16.5551 25.0684 16.9138 24.7688C18.2486 20.2548 22.3726 16.9592 27.2337 16.9592C29.1861 16.9592 31.1386 17.5184 32.8121 18.557C34.5254 19.6156 35.92 21.1536 36.8165 22.9312C36.8165 22.9312 36.8165 22.9512 36.8365 22.9512C36.8564 22.9911 36.8763 23.0311 36.9161 23.091C37.6732 23.5504 38.3904 24.0897 39.0877 24.6689C39.3268 24.8686 39.5459 25.0684 39.7651 25.2681C39.8448 25.328 39.9046 25.4079 39.9842 25.4678C40.0042 25.4079 40.0241 25.368 40.0639 25.3081C40.7413 20.9738 42.6539 17.838 44.9052 17.838C46.5986 17.838 48.1127 19.6156 49.0291 22.352V22.372C49.2881 22.6516 49.5471 22.9712 49.8061 23.3107C49.8061 23.3107 49.8061 23.3307 49.8261 23.3307C49.846 23.3706 49.846 23.4106 49.8659 23.4505L49.8261 23.3107C47.017 15.0018 39.1873 9.00977 29.9432 9.00977C18.3482 9.00977 8.9646 18.4172 8.9646 30.0417C8.9646 32.3387 9.32321 34.5358 10.0006 36.593C10.0006 36.593 10.0006 36.593 10.0006 36.573C10.14 35.9539 10.2994 35.3347 10.4787 34.7355C10.6381 34.2561 10.7975 33.7967 10.9768 33.3374Z" fill="#525353"/>
<path d="M50.1443 30.2806L49.4071 31.0995C49.3872 31.1994 49.3474 31.2993 49.3075 31.3991C49.3075 31.4191 49.2876 31.4391 49.2677 31.479C49.2477 31.5389 49.2079 31.6188 49.1681 31.6788C49.1481 31.7187 49.1282 31.7387 49.1083 31.7786C49.0684 31.8186 49.0485 31.8785 49.0087 31.9184C48.9688 31.9784 48.9091 32.0383 48.8493 32.0782C48.8294 32.0982 48.8095 32.1182 48.7895 32.1382C48.7497 32.1781 48.7098 32.1981 48.67 32.218C48.6501 32.218 48.6301 32.238 48.6102 32.238C48.5106 32.2979 48.3911 32.3179 48.2715 32.3179C47.6141 32.3179 47.0762 31.3991 47.0762 30.2407H44.6655C45.1237 30.76 45.5621 31.2793 45.9804 31.8186L46.0004 31.8385C46.4187 32.3579 46.8371 32.8772 47.2555 33.3965C47.2754 33.4164 47.2953 33.4564 47.3152 33.4764C47.7137 33.9757 48.0922 34.475 48.4708 34.9744C48.5106 35.0143 48.5505 35.0742 48.5903 35.1142C48.9888 35.6535 49.3872 36.1927 49.7857 36.7121C49.7857 36.7121 49.7857 36.7121 49.7857 36.732C50.483 34.6748 50.8615 32.4977 50.8814 30.2207L50.1443 30.2806Z" fill="white"/>
<path d="M26.7542 20.5507C26.814 20.5507 26.8538 20.5507 26.9136 20.5308C27.2921 20.5108 27.6707 20.4908 28.0492 20.4908C29.1848 20.4908 30.3005 20.6107 31.3763 20.8304C31.3763 20.8304 31.3763 20.8304 31.3763 20.8503C31.3763 20.8503 31.3763 20.8703 31.3763 20.8903C31.3763 20.9103 31.3763 20.9302 31.3763 20.9702C31.3763 20.9901 31.3763 21.0101 31.3763 21.0501C31.3763 21.09 31.3763 21.13 31.3763 21.1699C31.3763 21.1899 31.3763 21.2298 31.3763 21.2498C31.3763 21.2897 31.3763 21.3297 31.3763 21.3696V20.8304C32.1333 21.0101 33.4881 21.3896 34.5041 21.8091C34.9225 21.9888 35.3409 22.1885 35.7394 22.3883C35.7593 22.3883 35.7991 22.4083 35.839 22.4482C35.839 22.4482 35.8589 22.4482 35.8589 22.4682C35.8987 22.4881 35.9386 22.5081 35.9784 22.5481C36.0382 22.588 36.098 22.608 36.1577 22.6479H36.1777C36.4366 22.7878 36.7156 22.9675 36.8351 23.0274C36.855 23.0274 36.855 23.0474 36.855 23.0474L36.8749 23.0674C36.855 23.0274 36.8351 22.9875 36.7953 22.9276C36.7953 22.9276 36.7953 22.9076 36.7753 22.9076C35.8788 21.11 34.4643 19.572 32.7709 18.5334C31.0974 17.5148 29.1449 16.9355 27.1925 16.9355C22.3314 16.9355 18.2074 20.2312 16.8726 24.7451C18.1476 23.6466 19.5621 22.7278 21.0762 22.0487C22.8892 21.2099 24.8217 20.7105 26.7542 20.5507Z" fill="black"/>
<path d="M42.3157 22.0488C43.1724 21.2099 44.308 20.5308 45.5432 20.5308C46.5194 20.5308 47.4557 20.9303 48.3124 21.6493C48.3921 21.7093 48.4718 21.7892 48.5515 21.8491C48.5913 21.889 48.6511 21.929 48.691 21.9689C48.8105 22.0888 48.93 22.2086 49.0496 22.3484V22.3284C48.1132 19.5921 46.619 17.8145 44.9256 17.8145C42.6743 17.8145 40.7617 20.9303 40.0844 25.2845C40.6422 24.126 41.3793 22.9676 42.3157 22.0488Z" fill="black"/>
<path d="M22.4328 49.6723C22.6321 49.7522 22.8114 49.8121 23.0106 49.872C25.1822 50.631 27.5131 51.0505 29.9437 51.0505C32.7129 51.0505 35.3627 50.5112 37.7733 49.5325C37.8928 49.4726 38.0323 49.4326 38.1518 49.3727C38.3511 49.2928 38.5702 49.1929 38.7694 49.0931C38.9488 49.0132 39.1281 48.9333 39.3074 48.8334C39.2675 48.8334 39.2277 48.8534 39.1878 48.8534C38.4308 48.9333 37.6936 48.9533 36.9565 48.8334C32.6333 48.2142 31.677 46.117 31.8164 43.9599C31.4977 43.7802 31.1988 43.5804 30.8601 43.3407C27.5331 40.924 25.5607 38.3474 25.5607 38.3474C25.5607 38.3474 28.1307 40.3248 31.9559 41.8228C32.0356 41.8627 32.1153 41.8827 32.195 41.9226C32.3743 41.3035 32.5934 40.7042 32.7727 40.1849C32.7926 40.125 32.8126 40.0651 32.8325 40.0052C33.0516 39.406 33.2907 38.8068 33.5497 38.2275C34.506 36.0305 35.6814 33.8933 36.2592 31.5564L36.5381 30.2382H34.1872V30.2582C34.1872 30.6576 34.1075 31.0172 33.9681 31.3567C33.8884 31.5165 33.8087 31.6962 33.7091 31.8361C33.5099 32.1357 33.2509 32.3953 32.952 32.595C32.7926 32.6949 32.6333 32.7748 32.4739 32.8547C32.1352 32.9945 31.7567 33.0744 31.3781 33.0744C31.2785 33.0744 31.1789 33.0744 31.0793 33.0544C31.0594 33.0544 31.0394 33.0544 31.0195 33.0345C30.9398 33.0345 30.8801 33.0145 30.8004 32.9945C30.7804 32.9945 30.7605 32.9745 30.7406 32.9745C30.6609 32.9546 30.6011 32.9346 30.5215 32.9146C30.5015 32.9146 30.5015 32.9146 30.4816 32.8947C30.4019 32.8747 30.3222 32.8347 30.2625 32.8148H30.2425C30.1628 32.7748 30.0832 32.7349 30.0035 32.6949C29.7644 32.5551 29.5452 32.3953 29.346 32.1756L21.2574 30.1982H12.4316C12.3918 30.2582 12.352 30.3381 12.3121 30.398C12.2523 30.5178 12.1726 30.6377 12.1129 30.7775C11.9535 31.0771 11.7941 31.3966 11.6547 31.6962C11.5949 31.7961 11.555 31.916 11.4953 32.0158C11.316 32.4153 11.1566 32.8148 10.9972 33.2142C10.9972 33.2342 10.9773 33.2542 10.9773 33.2741C10.798 33.7335 10.6386 34.2129 10.4991 34.6923C10.3198 35.2915 10.1605 35.9106 10.021 36.5298C11.4156 40.7841 14.1051 44.4393 17.6514 46.9959C17.751 47.0758 17.8705 47.1357 17.9702 47.2156C18.5678 47.635 19.1854 48.0345 19.823 48.374C20.6597 48.8933 21.5363 49.3128 22.4328 49.6723Z" fill="white"/>
<path d="M36.9168 43.1223C36.8769 43.342 36.857 43.5617 36.857 43.7814C36.8371 44.1609 36.8769 44.5404 36.9367 44.88C36.9765 45.1197 37.0164 45.3394 37.0761 45.5591C37.1758 45.8786 37.2754 46.1783 37.4148 46.4579C37.5543 46.7375 37.6937 46.9972 37.8332 47.2169C37.8731 47.2968 37.9328 47.3767 37.9727 47.4366C38.0524 47.5364 38.1121 47.6363 38.1918 47.7362C38.2914 47.856 38.391 47.9759 38.4707 48.0757C38.8493 48.5151 39.168 48.7548 39.168 48.7548C39.168 48.7548 39.168 48.7548 39.168 48.7748C39.168 48.7948 39.168 48.8147 39.1879 48.8347C39.2278 48.8347 39.2676 48.8147 39.3075 48.8147C40.2439 48.6949 41.1802 48.4352 42.1166 48.1157C42.5947 47.9359 43.0729 47.7561 43.5311 47.5564C43.6706 47.4965 43.81 47.4166 43.9495 47.3567C48.7508 45.0198 52.7752 40.9053 52.7752 40.9053C46.7586 43.8813 40.8415 43.7615 36.9168 43.1223Z" fill="#9F2255"/>
<path d="M48.5123 35.0106C48.1338 34.5113 47.7354 34.0119 47.3568 33.5126C47.3369 33.4926 47.317 33.4527 47.2971 33.4327C46.8787 32.9134 46.4603 32.3941 46.0419 31.8748L46.022 31.8548C45.5837 31.3155 45.1454 30.7962 44.7071 30.2769C44.6872 30.237 44.6473 30.217 44.6274 30.1771C44.3485 29.8575 44.0696 29.5579 43.7907 29.2383C43.6911 29.1384 43.5914 29.0186 43.4918 28.9187C43.2528 28.6591 43.0336 28.4194 42.7945 28.1597C42.6152 27.96 42.416 27.7802 42.2367 27.5805C42.0574 27.4008 41.8781 27.221 41.6988 27.0412C41.3202 26.6617 40.9218 26.2822 40.5233 25.9227C40.344 25.7629 40.1647 25.6031 39.9854 25.4434C40.364 26.5419 40.8023 27.6404 41.0214 28.7789C41.0812 29.0785 41.121 29.3581 41.1609 29.6378C41.6988 33.5725 40.4237 36.1491 38.4315 39.5446C38.292 39.7843 38.1326 40.0439 37.9932 40.2836C37.5349 41.0426 37.2361 41.7816 37.0767 42.4607C37.0169 42.6804 36.9771 42.9001 36.9373 43.1198C40.862 43.759 46.7591 43.8788 52.7957 40.9028C52.7957 40.9028 51.6203 39.1651 49.8272 36.7683C49.4288 36.229 49.0303 35.6897 48.6319 35.1704C48.592 35.1105 48.5522 35.0506 48.5123 35.0106Z" fill="#E2066F"/>
<path d="M39.1679 48.7947C39.1679 48.7947 38.869 48.555 38.4706 48.1156C38.371 48.0157 38.2913 47.8959 38.1917 47.776C38.112 47.6762 38.0522 47.5763 37.9725 47.4764C37.9327 47.3965 37.8729 47.3366 37.8331 47.2567C37.6936 47.0171 37.5541 46.7774 37.4147 46.4977C37.2951 46.2181 37.1756 45.9185 37.076 45.5989C37.0162 45.3792 36.9565 45.1595 36.9365 44.9198C36.8768 44.5803 36.8568 44.2008 36.8568 43.8213C36.8568 43.6016 36.8768 43.3819 36.9166 43.1622C36.9565 42.9425 36.9963 42.7228 37.0561 42.5031C37.2354 41.824 37.5143 41.1049 37.9725 40.326C38.112 40.0663 38.2714 39.8266 38.4108 39.5869C40.4031 36.1915 41.6781 33.6349 41.1402 29.6801C41.1004 29.4005 41.0605 29.1009 41.0008 28.8213C40.9808 29.021 40.941 29.2008 40.9011 29.3406C40.9011 29.3606 40.9011 29.3606 40.9011 29.3805C40.8812 29.4804 40.8613 29.5603 40.8414 29.6202C39.9648 32.1968 38.5303 34.2141 36.558 36.3513C36.299 36.6509 36.0201 36.9305 35.7212 37.2301C35.2431 37.7294 34.7251 38.2487 34.2071 38.768C33.988 38.9877 33.7688 39.1875 33.5497 39.4072C33.3504 39.6069 33.0715 39.8865 32.7727 40.2061C32.5934 40.7254 32.3742 41.3246 32.1949 41.9438C32.1152 41.9039 32.0355 41.8839 31.9559 41.8439C28.1307 40.3659 25.5607 38.3686 25.5607 38.3686C25.5607 38.3686 27.533 40.9451 30.8601 43.3619C31.1789 43.6016 31.4976 43.8013 31.8164 43.9811C31.6769 46.1582 32.6332 48.2354 36.9565 48.8546C37.6936 48.9545 38.4307 48.9545 39.1878 48.8746C39.1878 48.8346 39.1679 48.8147 39.1679 48.7947Z" fill="black"/>
</svg>
