<svg xmlns="http://www.w3.org/2000/svg" viewBox="0 0 24 24"><path d="M23 7.046h-.001v.001z"/><path fill="#70C50A" d="m.029 10.852-.026 2.19 2.892.755.257 1.222-2.03 2.003 1.055 1.864 2.973-.755.734.863-.813 2.705 2.003 1.162 1.949-2.057 1.162.299.675 2.871 2.271.026.675-2.892 1.162-.353 2.083 2.169 2.051-1.216-.895-2.812.782-.814 2.892.895 1.028-2.03-2.083-1.891.219-1.216 2.951-.718v-2.137l-2.512-.777v.001l.364 1.136.107.348-.311.187-1.092.648-.311.182-1.168-1.216-.102.032-.299 1.285-.086.359-1.076-.016a5.663 5.663 0 0 1-11.19-1.227 5.685 5.685 0 0 1 4.462-5.544l.01-.691.006-.343 1.607-.439.016-.054-.921-.932-.247-.247.177-.299.59-1.023.177-.305.337.092 1.21.316L13.125 0h-2.27l-.622 2.786-1.216.327-1.971-2.111L5.097 2.11l.813 2.786-.813.841-2.872-.755-1.108 1.917L3.2 9.01l-.305 1.055-2.866.787z"/><path fill="#D3D3D3" d="m12.414 2.581-.59 1.023 1.108 1.124-.155.557-1.527.418-.016 1.162 1.542.402.128.648-1.076 1.066.558.991 1.586-.402.386.461-.434 1.441 1.066.622L16.03 11l.622.155.359 1.527 1.21.016.359-1.543.622-.187 1.108 1.156 1.092-.648-.472-1.5.418-.434 1.543.472.552-1.076-1.12-1.007.118-.648 1.557-.375V5.769l-1.527-.472-.118-.557 1.076-1.108-.556-1.039-1.553.402-.386-.402.402-1.511L20.313.46l-1.14 1.124-.574-.171L18.225 0h-1.21l-.333 1.414-.648.171L14.979.461l-1.038.589.434 1.483-.434.45-1.527-.402zm5.199.666a3.041 3.041 0 0 1 3.043 3.042 3.037 3.037 0 0 1-3.043 3.042 3.041 3.041 0 1 1 0-6.084z"/></svg>