<svg width="100" height="60" viewBox="0 0 100 60" fill="none" xmlns="http://www.w3.org/2000/svg">
<g clip-path="url(#clip0_3999_30007)">
<path d="M9.28083 0H90.6793C95.8304 0 100.001 4.18628 100.001 9.35804V40.551C100.001 45.7224 95.8308 49.909 90.6793 49.909H61.489L65.4957 59.7592L47.875 49.909H9.32224C4.17107 49.909 0.000755815 45.7227 0.000755815 40.551V9.35804C-0.040127 4.22745 4.13005 0 9.28122 0H9.28083Z" fill="#7F54B3"/>
<path d="M5.69452 8.52983C6.26362 7.75446 7.11729 7.34634 8.2555 7.26473C10.3287 7.10149 11.5075 8.08093 11.7921 10.203C13.0523 18.7325 14.4344 25.9556 15.898 31.8732L24.8003 14.8556C25.6133 13.3048 26.6296 12.4886 27.8491 12.407C29.6377 12.2846 30.7353 13.4272 31.1824 15.835C32.1987 21.2629 33.4995 25.8743 35.0442 29.7919C36.1011 19.426 37.8898 11.9582 40.4102 7.34642C41.02 6.20375 41.9143 5.63242 43.0932 5.55077C44.0281 5.46915 44.8818 5.75482 45.6541 6.36696C46.4265 6.97912 46.833 7.75449 46.9143 8.69312C46.9549 9.42771 46.833 10.0398 46.5078 10.652C44.9224 13.5903 43.6216 18.5285 42.5648 25.3841C41.5485 32.0363 41.1827 37.219 41.4266 40.9328C41.5079 41.953 41.3453 42.8508 40.9388 43.6262C40.451 44.524 39.7192 45.0138 38.7843 45.0954C37.7274 45.177 36.6299 44.6873 35.573 43.5854C31.7925 39.7085 28.7843 33.9136 26.5894 26.2003C23.9471 31.4238 21.996 35.3419 20.7358 37.9536C18.3375 42.565 16.305 44.9321 14.5976 45.0544C13.5 45.136 12.565 44.1974 11.752 42.2385C9.67886 36.8923 7.44304 26.5676 5.0446 11.264C4.882 10.203 5.1259 9.26434 5.69499 8.52975L5.69452 8.52983ZM93.0539 14.9369C91.5905 12.3659 89.436 10.8149 86.55 10.2028C85.7776 10.0395 85.0459 9.95791 84.3549 9.95791C80.4525 9.95791 77.2818 11.9984 74.8021 16.0795C72.6883 19.5483 71.6314 23.3846 71.6314 27.5877C71.6314 30.7301 72.2818 33.4234 73.5826 35.6681C75.046 38.2391 77.2005 39.7901 80.0865 40.4022C80.8589 40.5655 81.5906 40.6471 82.2816 40.6471C86.2246 40.6471 89.3953 38.6066 91.8344 34.5255C93.9482 31.0159 95.0051 27.1796 95.0051 22.9765C95.0458 19.7933 94.3547 17.1408 93.0539 14.9369ZM87.932 26.2412C87.3629 28.9347 86.3467 30.9341 84.8426 32.2812C83.6637 33.3423 82.5662 33.7912 81.5499 33.5871C80.5743 33.3831 79.7613 32.5261 79.1516 30.9345C78.6637 29.6694 78.4198 28.4043 78.4198 27.2208C78.4198 26.2006 78.5011 25.1803 78.7044 24.2417C79.0702 22.5685 79.7613 20.9361 80.8588 19.3852C82.2003 17.3856 83.6231 16.5694 85.0866 16.855C86.0622 17.0591 86.8752 17.9161 87.4849 19.5077C87.9727 20.7728 88.2167 22.0379 88.2167 23.2214C88.2167 24.2824 88.1354 25.3027 87.9321 26.2413L87.932 26.2412ZM67.6066 14.9369C66.1432 12.3659 63.9481 10.8149 61.1027 10.2028C60.3304 10.0395 59.5987 9.95791 58.9076 9.95791C55.0052 9.95791 51.8346 11.9984 49.3549 16.0795C47.241 19.5483 46.1841 23.3846 46.1841 27.5877C46.1841 30.7301 46.8345 33.4234 48.1353 35.6681C49.5987 38.2391 51.7532 39.7901 54.6392 40.4022C55.4116 40.5655 56.1433 40.6471 56.8344 40.6471C60.7773 40.6471 63.948 38.6066 66.3871 34.5255C68.5009 31.0159 69.5578 27.1796 69.5578 22.9765C69.5578 19.7933 68.9075 17.1408 67.6066 14.9369ZM62.4441 26.2412C61.875 28.9347 60.8588 30.9341 59.3547 32.2812C58.1759 33.3423 57.0783 33.7912 56.062 33.5871C55.0864 33.3831 54.2734 32.5261 53.6637 30.9345C53.1758 29.6694 52.9319 28.4043 52.9319 27.2208C52.9319 26.2006 53.0132 25.1803 53.2165 24.2417C53.5823 22.5685 54.2734 20.9361 55.371 19.3852C56.7124 17.3856 58.1352 16.5694 59.5987 16.855C60.5743 17.0591 61.3873 17.9161 61.997 19.5077C62.4849 20.7728 62.7288 22.0379 62.7288 23.2214C62.7694 24.2824 62.6475 25.3027 62.4442 26.2413L62.4441 26.2412Z" fill="white"/>
</g>
<defs>
<clipPath id="clip0_3999_30007">
<rect width="100" height="60" fill="white"/>
</clipPath>
</defs>
</svg>
